<?xml version="1.0" encoding="utf-8"?>
<!-- Generator: Adobe Illustrator 16.0.0, SVG Export Plug-In . SVG Version: 6.00 Build 0)  -->
<!DOCTYPE svg PUBLIC "-//W3C//DTD SVG 1.1//EN" "http://www.w3.org/Graphics/SVG/1.1/DTD/svg11.dtd">
<svg version="1.1" id="Layer_1" xmlns="http://www.w3.org/2000/svg" xmlns:xlink="http://www.w3.org/1999/xlink" x="0px" y="0px"
	 width="512px" height="512px" viewBox="0 0 512 512" enable-background="new 0 0 512 512" xml:space="preserve">
<path fill="#FF0D0D" d="M255.999,48.74c-114.222,0-207.258,93.037-207.258,207.259c0,114.222,93.036,207.261,207.258,207.261
	c114.225,0,207.26-93.039,207.26-207.261C463.259,141.777,370.224,48.74,255.999,48.74z M255.999,417.201
	c-88.89,0-161.202-72.31-161.202-161.203c0-88.891,72.312-161.202,161.202-161.202c88.892,0,161.205,72.312,161.205,161.202
	C417.204,344.892,344.891,417.201,255.999,417.201z M341.207,203.033l-52.506,52.966l52.966,52.968
	c9.213,9.209,9.213,23.488,0,32.696c-4.605,4.609-10.591,6.912-16.12,6.912c-5.525,0-11.977-2.303-16.12-6.912l-53.428-52.966
	l-49.742,49.748c-4.604,4.604-10.592,6.906-16.12,6.906c-5.525,0-11.974-2.302-16.121-6.906c-9.211-9.214-9.211-23.492,0-32.706
	l49.283-49.741l-52.506-52.966c-9.212-9.211-9.212-23.49,0-32.701c9.211-9.212,23.49-9.212,32.702,0l52.504,52.966l52.966-52.966
	c9.21-9.212,23.489-9.212,32.702,0C350.416,179.542,350.416,194.282,341.207,203.033z"/>
</svg>
