<?xml version="1.0" encoding="utf-8"?>
<!-- Generator: Adobe Illustrator 16.0.0, SVG Export Plug-In . SVG Version: 6.00 Build 0)  -->
<!DOCTYPE svg PUBLIC "-//W3C//DTD SVG 1.1//EN" "http://www.w3.org/Graphics/SVG/1.1/DTD/svg11.dtd">
<svg version="1.1" id="Layer_1" xmlns="http://www.w3.org/2000/svg" xmlns:xlink="http://www.w3.org/1999/xlink" x="0px" y="0px"
	 width="512px" height="512px" viewBox="0 0 512 512" enable-background="new 0 0 512 512" xml:space="preserve">
<path fill="#FF8500" d="M467.74,373.087L288.749,73.364c-12.681-21.142-43.217-23.021-56.37-2.348l-177.581,301.6
	c-14.094,22.079,1.879,55.903,28.187,55.903h356.102C464.924,428.52,480.892,395.17,467.74,373.087z M260.096,377.787
	c-12.686,0-23.02-10.336-23.02-23.023c0-12.68,10.334-23.018,23.02-23.018c12.686,0,23.018,10.338,23.018,23.018
	C283.113,367.451,272.781,377.787,260.096,377.787z M284.527,293.221c0,12.686-10.807,23.022-23.492,23.022
	c-12.683,0-23.489-10.337-23.489-23.022V172.958c0-12.684,10.807-23.018,23.489-23.018c12.686,0,23.492,10.334,23.492,23.018
	V293.221z"/>
</svg>
