<?xml version="1.0" encoding="utf-8"?>
<!-- Generator: Adobe Illustrator 16.0.0, SVG Export Plug-In . SVG Version: 6.00 Build 0)  -->
<!DOCTYPE svg PUBLIC "-//W3C//DTD SVG 1.1//EN" "http://www.w3.org/Graphics/SVG/1.1/DTD/svg11.dtd">
<svg version="1.1" id="Layer_1" xmlns="http://www.w3.org/2000/svg" xmlns:xlink="http://www.w3.org/1999/xlink" x="0px" y="0px"
	 width="512px" height="512px" viewBox="0 0 512 512" enable-background="new 0 0 512 512" xml:space="preserve">
<path fill="#38AD02" d="M256,457.973c-118.23,0-214.075-95.839-214.075-214.072C41.925,125.671,137.77,29.827,256,29.827
	c118.229,0,214.074,95.845,214.074,214.074C469.938,362.075,374.171,457.844,256,457.973z M256,73.262
	c-94.241,0-170.64,76.398-170.64,170.639c0,94.244,76.399,170.643,170.64,170.643c94.24,0,170.638-76.399,170.638-170.643
	C426.534,149.704,350.193,73.368,256,73.262z"/>
<path fill="#38AD02" d="M228.077,312.157c-5.759,0.012-11.287-2.28-15.356-6.358l-37.232-37.236
	c-8.395-8.563-8.26-22.308,0.305-30.709c8.442-8.277,21.959-8.28,30.404-0.002l21.88,21.874l71.518-71.513
	c8.563-8.397,22.313-8.256,30.711,0.309c8.275,8.445,8.275,21.961-0.005,30.407l-86.871,86.871
	C239.36,309.877,233.836,312.163,228.077,312.157z"/>
</svg>
