<?xml version="1.0" encoding="utf-8"?>
<!-- Generator: Adobe Illustrator 16.0.0, SVG Export Plug-In . SVG Version: 6.00 Build 0)  -->
<!DOCTYPE svg PUBLIC "-//W3C//DTD SVG 1.1//EN" "http://www.w3.org/Graphics/SVG/1.1/DTD/svg11.dtd">
<svg version="1.1" id="Layer_1" xmlns="http://www.w3.org/2000/svg" xmlns:xlink="http://www.w3.org/1999/xlink" x="0px" y="0px"
	 width="512px" height="512px" viewBox="0 0 512 512" enable-background="new 0 0 512 512" xml:space="preserve">
<path fill="#F7EB0D" d="M262.261,43.74c-110.813,0-200.26,89.449-200.26,200.259c0,110.814,89.447,200.261,200.26,200.261
	c110.811,0,200.258-89.447,200.258-200.261C462.519,133.189,373.071,43.74,262.261,43.74z M261.37,351.693
	c-12.017,0-21.808-9.788-21.808-21.804c0-12.018,9.791-21.806,21.808-21.806s21.804,9.788,21.804,21.806
	C283.174,341.905,273.387,351.693,261.37,351.693z M284.514,271.594c0,12.013-10.236,21.805-22.253,21.805
	c-12.015,0-22.252-9.792-22.252-21.805V157.666c0-12.018,10.237-21.808,22.252-21.808c12.017,0,22.253,9.79,22.253,21.808V271.594z"
	/>
</svg>
